<svg width="120" height="23" viewBox="0 0 120 23" fill="none" xmlns="http://www.w3.org/2000/svg">
<path d="M32.9863 17.6551V15.8133L40.5766 7.08763H32.9863V5.0459H43.8322V6.83714L36.2151 15.6133H43.8861V17.6568H32.9863V17.6551Z" fill="black"/>
<path d="M51.3959 17.9558C50.0867 17.9558 48.9287 17.6746 47.9252 17.1106C46.9191 16.5465 46.1307 15.7699 45.5559 14.7769C44.9808 13.7857 44.6943 12.6414 44.6943 11.3475C44.6943 10.0536 44.9808 8.90931 45.5559 7.91816C46.1307 6.92523 46.9232 6.14849 47.9383 5.58448C48.9518 5.02042 50.1134 4.73926 51.4232 4.73926C52.6612 4.73926 53.7459 5.02942 54.6787 5.60968C55.6116 6.18994 56.3419 7.0135 56.8727 8.08034C57.4019 9.14897 57.6673 10.405 57.6673 11.8503H47.3059C47.396 13.0955 47.8383 14.0669 48.6387 14.7643C49.4365 15.4617 50.4191 15.8113 51.5865 15.8113C52.4827 15.8113 53.2323 15.6148 53.8344 15.2184C54.4343 14.8237 54.9054 14.3227 55.2478 13.7173L57.4553 14.676C57.0962 15.3319 56.6308 15.9086 56.0555 16.4041C55.4807 16.8997 54.8039 17.2818 54.0228 17.5521C53.2423 17.8206 52.367 17.9558 51.398 17.9558H51.3959ZM47.4672 9.96174H54.9227C54.8693 9.28953 54.6767 8.72189 54.3442 8.25877C54.0113 7.79744 53.5904 7.43879 53.079 7.18651C52.567 6.93422 51.998 6.80808 51.3692 6.80808C50.7405 6.80808 50.1673 6.9306 49.5925 7.17388C49.0172 7.41717 48.5382 7.77577 48.1519 8.24614C47.7655 8.71647 47.5368 9.28953 47.4656 9.96174H47.4672Z" fill="black"/>
<path d="M58.8512 17.6549V5.04394H61.2472L61.355 6.88568C61.8031 6.19726 62.3821 5.66745 63.0914 5.29623C63.7992 4.9268 64.6127 4.74121 65.5283 4.74121C66.5857 4.74121 67.5071 4.943 68.2855 5.34667C69.0645 5.75035 69.6665 6.37748 70.0894 7.22628C70.5109 8.07504 70.7223 9.18875 70.7223 10.5673V17.6549H68.1646V11.198C68.1646 10.0555 68.0259 9.18512 67.7474 8.58865C67.4683 7.99213 67.0836 7.57588 66.5894 7.3398C66.0952 7.10372 65.5262 6.97758 64.8802 6.96138C63.7856 6.96138 62.9339 7.32355 62.3224 8.04621C61.7126 8.76882 61.4069 9.787 61.4069 11.0971V17.6549H58.8496H58.8512Z" fill="black"/>
<path d="M74.0024 23.0002C73.6083 23.0002 73.1722 22.9335 72.6969 22.7984C72.2221 22.6632 71.7315 22.4866 71.2295 22.2686L72.1718 20.3025C72.566 20.4701 72.9125 20.5963 73.2083 20.6809C73.5046 20.7656 73.7433 20.8071 73.9218 20.8071C74.3699 20.8071 74.7505 20.6899 75.0662 20.4539C75.3797 20.2178 75.6352 19.8898 75.8336 19.4699L76.6681 17.5777L70.8008 5.04248H73.5198L77.8794 14.8278L82.1851 5.04248H84.9313L78.5526 19.2158C78.2123 19.989 77.8527 20.6611 77.4758 21.2342C77.0989 21.8054 76.6372 22.2434 76.0891 22.5461C75.541 22.8488 74.8468 23.0002 74.0024 23.0002Z" fill="black"/>
<path d="M90.5277 17.9558C89.307 17.9558 88.2453 17.6782 87.3397 17.1232C86.4335 16.5682 85.7242 15.7951 85.2127 14.8021C84.7013 13.811 84.4453 12.6576 84.4453 11.3475C84.4453 10.0374 84.7013 8.86244 85.2127 7.88029C85.7242 6.89635 86.432 6.12687 87.3397 5.57186C88.2453 5.01679 89.3085 4.73926 90.5277 4.73926C91.4779 4.73926 92.3317 4.9411 93.0855 5.34477C93.8393 5.74845 94.4586 6.31972 94.9434 7.06037V5.04383H97.4739V17.6548H95.0507L94.9701 15.6113C94.4853 16.3519 93.866 16.9268 93.1122 17.3394C92.3584 17.7521 91.4972 17.9576 90.5277 17.9576V17.9558ZM91.1203 15.7878C91.8548 15.7878 92.5065 15.604 93.0719 15.2328C93.6373 14.8616 94.0854 14.3552 94.4183 13.7064C94.7507 13.0595 94.9261 12.3153 94.9434 11.4737V11.2214C94.9261 10.3816 94.7507 9.63734 94.4183 8.99037C94.0854 8.34346 93.6373 7.83347 93.0719 7.46404C92.5065 7.09461 91.8469 6.90898 91.0931 6.90898C90.3393 6.90898 89.6027 7.09819 88.9934 7.47667C88.3835 7.85509 87.9066 8.37586 87.5664 9.04087C87.2261 9.70404 87.0549 10.4735 87.0549 11.3475C87.0549 12.2215 87.2298 12.991 87.58 13.656C87.9297 14.321 88.4087 14.8418 89.0201 15.2202C89.63 15.5986 90.3299 15.7878 91.1203 15.7878Z" fill="black"/>
<path d="M99.6789 17.6551V5.0441H102.237V7.31471C102.775 6.5254 103.469 5.93977 104.323 5.56129C105.175 5.18287 106.067 4.99365 107 4.99365V7.26426C106.192 7.26426 105.425 7.37783 104.698 7.60487C103.971 7.83195 103.379 8.20133 102.921 8.71495C102.463 9.22857 102.235 9.92235 102.235 10.7963V17.6569H99.6768L99.6789 17.6551Z" fill="black"/>
<path d="M113.054 17.9559C111.833 17.9559 110.772 17.6784 109.866 17.1234C108.96 16.5683 108.251 15.7953 107.739 14.8023C107.227 13.8111 106.972 12.6578 106.972 11.3477C106.972 10.0376 107.227 8.86267 107.739 7.88052C108.251 6.89658 108.958 6.1271 109.866 5.57203C110.772 5.01702 111.835 4.73948 113.054 4.73948C114.004 4.73948 114.858 4.94132 115.612 5.345C116.366 5.74862 116.985 6.31989 117.469 7.06054V0H120V17.655H117.577L117.496 15.6114C117.012 16.3521 116.392 16.927 115.639 17.3396C114.885 17.7523 114.024 17.9577 113.054 17.9577V17.9559ZM113.647 15.7881C114.381 15.7881 115.033 15.6042 115.598 15.233C116.164 14.8618 116.612 14.3554 116.945 13.7066C117.277 13.0597 117.452 12.3154 117.469 11.4739V11.2215C117.452 10.3818 117.277 9.63756 116.945 8.9906C116.612 8.34363 116.164 7.83365 115.598 7.46422C115.033 7.09478 114.373 6.9092 113.619 6.9092C112.866 6.9092 112.129 7.09841 111.52 7.47684C110.91 7.85527 110.433 8.37609 110.093 9.04105C109.752 9.70421 109.581 10.4737 109.581 11.3477C109.581 12.2217 109.756 12.9912 110.106 13.6562C110.456 14.3211 110.935 14.842 111.546 15.2204C112.156 15.5989 112.856 15.7881 113.647 15.7881Z" fill="black"/>
<mask id="mask0_3498_1968" style="mask-type:luminance" maskUnits="userSpaceOnUse" x="0" y="0" width="24" height="23">
<path d="M23.557 0H0V23H23.557V0Z" fill="white"/>
</mask>
<g mask="url(#mask0_3498_1968)">
<path d="M7.85171 0H0V7.66605H7.85171V0Z" fill="#FFE500"/>
<path d="M15.7033 0H7.85156V7.66605H15.7033V0Z" fill="#9DDAE0"/>
<path d="M23.5568 0H15.7051V7.66605H23.5568V0Z" fill="#ACA0FF"/>
<path d="M7.85171 15.334H0V23.0001H7.85171V15.334Z" fill="#4FB2FC"/>
<path d="M15.7033 15.334H7.85156V23.0001H15.7033V15.334Z" fill="#4387E8"/>
<path d="M23.5568 15.334H15.7051V23.0001H23.5568V15.334Z" fill="#3D5ED3"/>
<path d="M7.85171 15.3339H0L7.85171 7.66602V15.3339Z" fill="#D4D778"/>
<path d="M15.7033 7.66602H7.85156V15.3321H15.7033V7.66602Z" fill="#7BAFEA"/>
<path d="M15.7051 15.3339V7.66602H23.5568L15.7051 15.3339Z" fill="#7E75FC"/>
</g>
</svg>
